<svg width="131" height="25" viewBox="0 0 131 25" fill="none" xmlns="http://www.w3.org/2000/svg">
<path d="M16.928 0.699951C16.448 0.699951 16.016 0.831951 15.632 1.09595C15.272 1.35995 15.02 1.71995 14.876 2.17595L10.268 15.604L5.91197 2.21195C5.76797 1.75595 5.50397 1.39595 5.11997 1.13195C4.75997 0.843951 4.33997 0.699951 3.85997 0.699951H2.34797C1.62797 0.699951 1.07597 0.867951 0.691967 1.20395C0.307967 1.53995 0.115967 1.99595 0.115967 2.57195C0.115967 2.81195 0.175967 3.13595 0.295967 3.54395L6.95597 23.524C7.12397 23.98 7.38797 24.34 7.74797 24.604C8.13197 24.868 8.55197 25 9.00797 25H11.42C11.876 25 12.284 24.868 12.644 24.604C13.028 24.34 13.292 23.992 13.436 23.56L20.492 3.57995C20.636 3.17195 20.708 2.82395 20.708 2.53595C20.708 1.95995 20.504 1.51595 20.096 1.20395C19.712 0.867951 19.16 0.699951 18.44 0.699951H16.928Z" fill="black"/>
<path d="M38.8795 0.879951C38.2315 0.879951 37.7035 1.08395 37.2955 1.49195C36.9115 1.87595 36.7195 2.39195 36.7195 3.03995V14.992L29.1595 2.03195C28.9915 1.71995 28.7275 1.46795 28.3675 1.27595C28.0315 1.05995 27.6835 0.95195 27.3235 0.95195H24.3715C23.7235 0.95195 23.1955 1.15595 22.7875 1.56395C22.4035 1.94795 22.2115 2.46395 22.2115 3.11195V22.84C22.2115 23.488 22.4035 24.016 22.7875 24.424C23.1955 24.808 23.7235 25 24.3715 25H25.8475C26.4955 25 27.0115 24.808 27.3955 24.424C27.8035 24.016 28.0075 23.488 28.0075 22.84V10.924L35.6035 23.92C35.7715 24.232 36.0235 24.496 36.3595 24.712C36.7195 24.904 37.0795 25 37.4395 25H40.3195C40.9675 25 41.4835 24.808 41.8675 24.424C42.2755 24.016 42.4795 23.488 42.4795 22.84V3.03995C42.4795 2.39195 42.2755 1.87595 41.8675 1.49195C41.4835 1.08395 40.9675 0.879951 40.3195 0.879951H38.8795Z" fill="black"/>
<path d="M55.7278 19.456C54.7918 19.456 53.9158 19.288 53.0998 18.952C52.3078 18.592 51.5998 18.124 50.9758 17.548C50.3758 16.948 49.8958 16.252 49.5358 15.46C49.1758 14.668 48.9958 13.828 48.9958 12.94C48.9958 12.052 49.1758 11.212 49.5358 10.42C49.8958 9.62795 50.3758 8.93195 50.9758 8.33195C51.5998 7.70795 52.3078 7.23995 53.0998 6.92795C53.9158 6.59195 54.7918 6.42395 55.7278 6.42395C56.7118 6.42395 57.5998 6.59195 58.3918 6.92795C59.2078 7.23995 59.9158 7.70795 60.5158 8.33195C61.1398 8.93195 61.6318 9.62795 61.9918 10.42C62.3518 11.212 62.5318 12.052 62.5318 12.94C62.5318 13.828 62.3518 14.668 61.9918 15.46C61.6318 16.252 61.1398 16.948 60.5158 17.548C59.9158 18.124 59.2078 18.592 58.3918 18.952C57.5998 19.288 56.7118 19.456 55.7278 19.456ZM55.7278 0.843951C54.0478 0.843951 52.4278 1.16795 50.8678 1.81595C49.3798 2.43995 48.0598 3.29195 46.9078 4.37195C45.8038 5.45195 44.9038 6.73595 44.2078 8.22395C43.5358 9.66395 43.1998 11.236 43.1998 12.94C43.1998 14.62 43.5358 16.18 44.2078 17.62C44.8798 19.084 45.7798 20.356 46.9078 21.436C48.0358 22.564 49.3558 23.428 50.8678 24.028C52.4278 24.676 54.0478 25 55.7278 25C57.4798 25 59.1238 24.676 60.6598 24.028C62.1718 23.404 63.5038 22.54 64.6558 21.436C65.8078 20.356 66.7078 19.084 67.3558 17.62C68.0038 16.132 68.3278 14.572 68.3278 12.94C68.3278 11.26 68.0038 9.68795 67.3558 8.22395C66.7078 6.73595 65.8078 5.45195 64.6558 4.37195C63.4798 3.31595 62.1478 2.46395 60.6598 1.81595C59.0998 1.16795 57.4558 0.843951 55.7278 0.843951Z" fill="black"/>
<path d="M74.8357 6.53195C75.4357 6.53195 76.0237 6.63995 76.5997 6.85595C77.1757 7.04795 77.6677 7.29995 78.0757 7.61195C78.5077 7.92395 78.8316 8.27195 79.0477 8.65595C79.2877 9.03995 79.4077 9.47195 79.4077 9.95195C79.4077 10.408 79.2877 10.84 79.0477 11.248C78.8316 11.632 78.5077 11.98 78.0757 12.292C77.6677 12.604 77.1757 12.856 76.5997 13.048C76.0237 13.216 75.4357 13.324 74.8357 13.372V6.53195ZM80.0197 23.992C80.2117 24.304 80.4757 24.556 80.8117 24.748C81.1477 24.916 81.4957 25 81.8557 25H84.0877C84.7597 25 85.2757 24.88 85.6357 24.64C85.9957 24.4 86.1757 24.064 86.1757 23.632C86.1757 23.2 85.9957 22.696 85.6357 22.12L81.9637 16.396C83.0197 15.556 83.8357 14.584 84.4117 13.48C84.9637 12.328 85.2397 11.152 85.2397 9.95195C85.2397 8.72795 84.9637 7.56395 84.4117 6.45995C83.8837 5.42795 83.1397 4.47995 82.1797 3.61595C81.2197 2.79995 80.1277 2.16395 78.9037 1.70795C77.6317 1.22795 76.2757 0.97595 74.8357 0.95195H71.1997C70.5517 0.95195 70.0237 1.15595 69.6157 1.56395C69.2317 1.94795 69.0397 2.46395 69.0397 3.11195V22.84C69.0397 23.488 69.2317 24.016 69.6157 24.424C70.0237 24.808 70.5517 25 71.1997 25H72.6757C73.3237 25 73.8397 24.808 74.2237 24.424C74.6317 24.016 74.8357 23.488 74.8357 22.84V18.916L75.7717 18.88L76.6717 18.772L80.0197 23.992Z" fill="black"/>
<path d="M108.216 0.843951C107.76 0.843951 107.34 0.975951 106.956 1.23995C106.596 1.50395 106.344 1.85195 106.2 2.28395L101.268 15.964L96.2998 2.28395C96.1558 1.85195 95.8918 1.50395 95.5078 1.23995C95.1478 0.975951 94.7398 0.843951 94.2838 0.843951H91.8718C91.2478 0.843951 90.7318 1.03595 90.3238 1.41995C89.9398 1.77995 89.7358 2.25995 89.7118 2.85995L88.3438 22.696C88.2958 23.392 88.4758 23.956 88.8838 24.388C89.2918 24.796 89.8318 25 90.5038 25H92.0158C92.6158 25 93.1078 24.82 93.4918 24.46C93.8998 24.1 94.1278 23.608 94.1758 22.984L94.7158 14.776L97.9198 23.56C98.0638 23.992 98.3158 24.34 98.6758 24.604C99.0598 24.868 99.4798 25 99.9358 25H102.672C103.128 25 103.536 24.868 103.896 24.604C104.28 24.34 104.544 23.992 104.688 23.56L107.712 15.136L108.216 22.984C108.264 23.584 108.48 24.076 108.864 24.46C109.248 24.82 109.74 25 110.34 25H111.816C112.512 25 113.052 24.796 113.436 24.388C113.82 23.956 114 23.392 113.976 22.696L112.752 2.85995C112.704 2.25995 112.488 1.77995 112.104 1.41995C111.72 1.03595 111.228 0.843951 110.628 0.843951H108.216Z" fill="black"/>
<path d="M128.816 6.42395C129.464 6.42395 129.98 6.23195 130.364 5.84795C130.772 5.43995 130.976 4.91195 130.976 4.26395V3.03995C130.976 2.39195 130.772 1.87595 130.364 1.49195C129.98 1.08395 129.464 0.879951 128.816 0.879951L117.008 0.95195C116.36 0.95195 115.832 1.15595 115.424 1.56395C115.04 1.94795 114.848 2.46395 114.848 3.11195V22.84C114.848 23.488 115.04 24.016 115.424 24.424C115.832 24.808 116.36 25 117.008 25H128.816C129.464 25 129.98 24.808 130.364 24.424C130.772 24.016 130.976 23.488 130.976 22.84V21.616C130.976 20.968 130.772 20.452 130.364 20.068C129.98 19.66 129.464 19.456 128.816 19.456H120.644V15.604H128.816C129.464 15.604 129.98 15.412 130.364 15.028C130.772 14.62 130.976 14.092 130.976 13.444V12.22C130.976 11.572 130.772 11.056 130.364 10.672C129.98 10.264 129.464 10.06 128.816 10.06H120.644V6.42395H128.816Z" fill="black"/>
</svg>
